# xmcd CD database file
#
# Track frame offsets:
#	150
#	25320
#	45584
#	66182
#	88049
#	108182
#	127532
#	150614
#	171878
#	193602
#	210976
#	232302
#
# Disc length: 3348 seconds
#
# Revision: 0
# Processed by: cddbd v1.5.2PL0 Copyright (c) Steve Scherf et al.
# Submitted via: CDex 1.70beta2
#
DISCID=960d120c
DTITLE=Select Mix - Select Mix - Country Essentials Volume 2
DYEAR=2007
DGENRE=Country
TTITLE0=Brooks and Dunn - Hillbilly Deluxe (BPM 77)
TTITLE1=Jason Aldean - Amarillo Sky (BPM 78)
TTITLE2=Big and Rich - Lost In The Moment (BPM 90)
TTITLE3=Gretchen Wilson - Redneck Woman (BPM 92)
TTITLE4=Rascal Flats - Stand (BPM 94)
TTITLE5=Kenny Chesney - When The Sun Goes Down (BPM 105)
TTITLE6=Garth Brooks - Friends In Low Places (BPM 107.5)
TTITLE7=Keith Urban - Somebody Like You (BPM 110)
TTITLE8=Rodney Atkins - If You're Going Through Hell (BPM 116)
TTITLE9=Trace Atkins - Honky Tonk Badonkadonk (BPM 116)
TTITLE10=Toby Keith - As Good As I Once Was (BPM 119)
TTITLE11=Bucky Covington - A Different World (BPM 127)
EXTD=YEAR: 2007
EXTT0=
EXTT1=
EXTT2=
EXTT3=
EXTT4=
EXTT5=
EXTT6=
EXTT7=
EXTT8=
EXTT9=
EXTT10=
EXTT11=
PLAYORDER=
